<mxfile host="app.diagrams.net" modified="2023-10-06T00:10:42.347Z" agent="Mozilla/5.0 (Windows NT 10.0; Win64; x64) AppleWebKit/537.36 (KHTML, like Gecko) Chrome/117.0.0.0 Safari/537.36" etag="kz2amMZAllC0BW9gZAF9" version="22.0.3" type="device">
  <diagram name="PÃ¡gina-1" id="uxt_F1TDJ-HZpGoHfQda">
    <mxGraphModel dx="2181" dy="1774" grid="1" gridSize="10" guides="1" tooltips="1" connect="1" arrows="1" fold="1" page="1" pageScale="1" pageWidth="827" pageHeight="1169" math="0" shadow="0">
      <root>
        <mxCell id="0" />
        <mxCell id="1" parent="0" />
        <mxCell id="KWuVbnkJmggJ6VGydbBu-1" value="" style="rounded=0;whiteSpace=wrap;html=1;" parent="1" vertex="1">
          <mxGeometry x="400" y="160" width="120" height="60" as="geometry" />
        </mxCell>
        <mxCell id="KWuVbnkJmggJ6VGydbBu-2" value="Biblioteca" style="text;html=1;strokeColor=none;fillColor=none;align=center;verticalAlign=middle;whiteSpace=wrap;rounded=0;" parent="1" vertex="1">
          <mxGeometry x="430" y="175" width="60" height="30" as="geometry" />
        </mxCell>
        <mxCell id="KWuVbnkJmggJ6VGydbBu-3" value="" style="endArrow=none;html=1;rounded=0;entryX=0;entryY=0.5;entryDx=0;entryDy=0;" parent="1" target="KWuVbnkJmggJ6VGydbBu-1" edge="1">
          <mxGeometry width="50" height="50" relative="1" as="geometry">
            <mxPoint x="340" y="190" as="sourcePoint" />
            <mxPoint x="440" y="290" as="targetPoint" />
            <Array as="points">
              <mxPoint x="350" y="190" />
            </Array>
          </mxGeometry>
        </mxCell>
        <mxCell id="KWuVbnkJmggJ6VGydbBu-4" value="" style="rhombus;whiteSpace=wrap;html=1;" parent="1" vertex="1">
          <mxGeometry x="230" y="150" width="120" height="80" as="geometry" />
        </mxCell>
        <mxCell id="KWuVbnkJmggJ6VGydbBu-5" value="tiene" style="text;html=1;strokeColor=none;fillColor=none;align=center;verticalAlign=middle;whiteSpace=wrap;rounded=0;" parent="1" vertex="1">
          <mxGeometry x="260" y="175" width="60" height="30" as="geometry" />
        </mxCell>
        <mxCell id="KWuVbnkJmggJ6VGydbBu-7" value="" style="endArrow=none;html=1;rounded=0;" parent="1" target="KWuVbnkJmggJ6VGydbBu-8" edge="1">
          <mxGeometry width="50" height="50" relative="1" as="geometry">
            <mxPoint x="230" y="190" as="sourcePoint" />
            <mxPoint x="230" y="190" as="targetPoint" />
            <Array as="points">
              <mxPoint x="230" y="190" />
            </Array>
          </mxGeometry>
        </mxCell>
        <mxCell id="DMn7qoaX3mOR8foh6lKY-9" style="edgeStyle=orthogonalEdgeStyle;rounded=0;orthogonalLoop=1;jettySize=auto;html=1;exitX=0.75;exitY=1;exitDx=0;exitDy=0;" edge="1" parent="1" source="KWuVbnkJmggJ6VGydbBu-8">
          <mxGeometry relative="1" as="geometry">
            <mxPoint x="220" y="300" as="targetPoint" />
          </mxGeometry>
        </mxCell>
        <mxCell id="KWuVbnkJmggJ6VGydbBu-8" value="" style="rounded=0;whiteSpace=wrap;html=1;" parent="1" vertex="1">
          <mxGeometry x="20" y="160" width="120" height="60" as="geometry" />
        </mxCell>
        <mxCell id="KWuVbnkJmggJ6VGydbBu-9" value="libros" style="text;html=1;strokeColor=none;fillColor=none;align=center;verticalAlign=middle;whiteSpace=wrap;rounded=0;" parent="1" vertex="1">
          <mxGeometry x="50" y="175" width="60" height="30" as="geometry" />
        </mxCell>
        <mxCell id="KWuVbnkJmggJ6VGydbBu-10" value="" style="endArrow=none;html=1;rounded=0;" parent="1" edge="1">
          <mxGeometry width="50" height="50" relative="1" as="geometry">
            <mxPoint x="80" y="160" as="sourcePoint" />
            <mxPoint x="80" y="90" as="targetPoint" />
          </mxGeometry>
        </mxCell>
        <mxCell id="KWuVbnkJmggJ6VGydbBu-12" value="" style="rhombus;whiteSpace=wrap;html=1;" parent="1" vertex="1">
          <mxGeometry x="20" y="10" width="120" height="80" as="geometry" />
        </mxCell>
        <mxCell id="KWuVbnkJmggJ6VGydbBu-13" value="tiene" style="text;html=1;strokeColor=none;fillColor=none;align=center;verticalAlign=middle;whiteSpace=wrap;rounded=0;" parent="1" vertex="1">
          <mxGeometry x="50" y="35" width="60" height="30" as="geometry" />
        </mxCell>
        <mxCell id="KWuVbnkJmggJ6VGydbBu-14" value="" style="endArrow=none;html=1;rounded=0;" parent="1" edge="1">
          <mxGeometry width="50" height="50" relative="1" as="geometry">
            <mxPoint x="80" y="10" as="sourcePoint" />
            <mxPoint x="80" y="-60" as="targetPoint" />
          </mxGeometry>
        </mxCell>
        <mxCell id="KWuVbnkJmggJ6VGydbBu-15" value="" style="rounded=0;whiteSpace=wrap;html=1;" parent="1" vertex="1">
          <mxGeometry x="20" y="-120" width="120" height="60" as="geometry" />
        </mxCell>
        <mxCell id="KWuVbnkJmggJ6VGydbBu-16" value="prestamos" style="text;html=1;strokeColor=none;fillColor=none;align=center;verticalAlign=middle;whiteSpace=wrap;rounded=0;" parent="1" vertex="1">
          <mxGeometry x="50" y="-105" width="60" height="30" as="geometry" />
        </mxCell>
        <mxCell id="KWuVbnkJmggJ6VGydbBu-17" value="" style="endArrow=none;html=1;rounded=0;entryX=0.5;entryY=1;entryDx=0;entryDy=0;exitX=0.5;exitY=0;exitDx=0;exitDy=0;" parent="1" edge="1" target="KWuVbnkJmggJ6VGydbBu-8" source="KWuVbnkJmggJ6VGydbBu-18">
          <mxGeometry width="50" height="50" relative="1" as="geometry">
            <mxPoint x="-70" y="190" as="sourcePoint" />
            <mxPoint x="20" y="190" as="targetPoint" />
          </mxGeometry>
        </mxCell>
        <mxCell id="KWuVbnkJmggJ6VGydbBu-18" value="" style="rhombus;whiteSpace=wrap;html=1;" parent="1" vertex="1">
          <mxGeometry x="20" y="280" width="120" height="80" as="geometry" />
        </mxCell>
        <mxCell id="KWuVbnkJmggJ6VGydbBu-20" value="" style="rounded=0;whiteSpace=wrap;html=1;" parent="1" vertex="1">
          <mxGeometry x="-360" y="160" width="120" height="60" as="geometry" />
        </mxCell>
        <mxCell id="KWuVbnkJmggJ6VGydbBu-21" value="" style="endArrow=none;html=1;rounded=0;" parent="1" edge="1">
          <mxGeometry width="50" height="50" relative="1" as="geometry">
            <mxPoint x="-240" y="190" as="sourcePoint" />
            <mxPoint x="-180" y="190" as="targetPoint" />
          </mxGeometry>
        </mxCell>
        <mxCell id="KWuVbnkJmggJ6VGydbBu-22" value="clase" style="text;html=1;strokeColor=none;fillColor=none;align=center;verticalAlign=middle;whiteSpace=wrap;rounded=0;" parent="1" vertex="1">
          <mxGeometry x="-330" y="175" width="60" height="30" as="geometry" />
        </mxCell>
        <mxCell id="KWuVbnkJmggJ6VGydbBu-25" value="" style="rhombus;whiteSpace=wrap;html=1;" parent="1" vertex="1">
          <mxGeometry x="20" y="-250" width="120" height="80" as="geometry" />
        </mxCell>
        <mxCell id="KWuVbnkJmggJ6VGydbBu-27" value="" style="rounded=0;whiteSpace=wrap;html=1;" parent="1" vertex="1">
          <mxGeometry x="20" y="410" width="120" height="60" as="geometry" />
        </mxCell>
        <mxCell id="KWuVbnkJmggJ6VGydbBu-29" value="autores" style="text;html=1;strokeColor=none;fillColor=none;align=center;verticalAlign=middle;whiteSpace=wrap;rounded=0;" parent="1" vertex="1">
          <mxGeometry x="50" y="425" width="60" height="30" as="geometry" />
        </mxCell>
        <mxCell id="KWuVbnkJmggJ6VGydbBu-30" value="" style="rounded=0;whiteSpace=wrap;html=1;" parent="1" vertex="1">
          <mxGeometry x="230" y="410" width="120" height="60" as="geometry" />
        </mxCell>
        <mxCell id="KWuVbnkJmggJ6VGydbBu-31" value="" style="endArrow=none;html=1;rounded=0;exitX=0.5;exitY=0;exitDx=0;exitDy=0;" parent="1" edge="1" source="KWuVbnkJmggJ6VGydbBu-144">
          <mxGeometry width="50" height="50" relative="1" as="geometry">
            <mxPoint x="264.5" y="539" as="sourcePoint" />
            <mxPoint x="264.5" y="470" as="targetPoint" />
            <Array as="points">
              <mxPoint x="264.5" y="510" />
            </Array>
          </mxGeometry>
        </mxCell>
        <mxCell id="KWuVbnkJmggJ6VGydbBu-32" value="editorial" style="text;html=1;strokeColor=none;fillColor=none;align=center;verticalAlign=middle;whiteSpace=wrap;rounded=0;" parent="1" vertex="1">
          <mxGeometry x="260" y="425" width="60" height="30" as="geometry" />
        </mxCell>
        <mxCell id="KWuVbnkJmggJ6VGydbBu-39" value="realiza" style="text;html=1;strokeColor=none;fillColor=none;align=center;verticalAlign=middle;whiteSpace=wrap;rounded=0;" parent="1" vertex="1">
          <mxGeometry x="50" y="-225" width="60" height="30" as="geometry" />
        </mxCell>
        <mxCell id="KWuVbnkJmggJ6VGydbBu-40" value="" style="endArrow=none;html=1;rounded=0;exitX=0.5;exitY=0;exitDx=0;exitDy=0;" parent="1" source="KWuVbnkJmggJ6VGydbBu-15" edge="1">
          <mxGeometry width="50" height="50" relative="1" as="geometry">
            <mxPoint x="30" y="-120" as="sourcePoint" />
            <mxPoint x="80" y="-170" as="targetPoint" />
          </mxGeometry>
        </mxCell>
        <mxCell id="KWuVbnkJmggJ6VGydbBu-41" value="" style="rounded=0;whiteSpace=wrap;html=1;" parent="1" vertex="1">
          <mxGeometry x="20" y="-370" width="120" height="60" as="geometry" />
        </mxCell>
        <mxCell id="KWuVbnkJmggJ6VGydbBu-42" value="" style="endArrow=none;html=1;rounded=0;" parent="1" edge="1">
          <mxGeometry width="50" height="50" relative="1" as="geometry">
            <mxPoint x="80" y="-250" as="sourcePoint" />
            <mxPoint x="80" y="-310" as="targetPoint" />
          </mxGeometry>
        </mxCell>
        <mxCell id="KWuVbnkJmggJ6VGydbBu-43" value="usuario" style="text;html=1;strokeColor=none;fillColor=none;align=center;verticalAlign=middle;whiteSpace=wrap;rounded=0;" parent="1" vertex="1">
          <mxGeometry x="50" y="-355" width="60" height="30" as="geometry" />
        </mxCell>
        <mxCell id="KWuVbnkJmggJ6VGydbBu-44" value="" style="endArrow=none;html=1;rounded=0;" parent="1" edge="1">
          <mxGeometry width="50" height="50" relative="1" as="geometry">
            <mxPoint x="420" y="160" as="sourcePoint" />
            <mxPoint x="420" y="110" as="targetPoint" />
          </mxGeometry>
        </mxCell>
        <mxCell id="KWuVbnkJmggJ6VGydbBu-45" value="" style="ellipse;whiteSpace=wrap;html=1;aspect=fixed;" parent="1" vertex="1">
          <mxGeometry x="400" y="70" width="40" height="40" as="geometry" />
        </mxCell>
        <mxCell id="KWuVbnkJmggJ6VGydbBu-46" value="codigo" style="text;html=1;strokeColor=none;fillColor=none;align=center;verticalAlign=middle;whiteSpace=wrap;rounded=0;" parent="1" vertex="1">
          <mxGeometry x="390" y="35" width="60" height="30" as="geometry" />
        </mxCell>
        <mxCell id="KWuVbnkJmggJ6VGydbBu-47" value="" style="ellipse;whiteSpace=wrap;html=1;aspect=fixed;" parent="1" vertex="1">
          <mxGeometry x="405" y="75" width="30" height="30" as="geometry" />
        </mxCell>
        <mxCell id="KWuVbnkJmggJ6VGydbBu-48" value="" style="endArrow=none;html=1;rounded=0;" parent="1" edge="1">
          <mxGeometry width="50" height="50" relative="1" as="geometry">
            <mxPoint x="460" y="160" as="sourcePoint" />
            <mxPoint x="480" y="90" as="targetPoint" />
          </mxGeometry>
        </mxCell>
        <mxCell id="KWuVbnkJmggJ6VGydbBu-52" value="" style="ellipse;whiteSpace=wrap;html=1;aspect=fixed;" parent="1" vertex="1">
          <mxGeometry x="470" y="60" width="40" height="40" as="geometry" />
        </mxCell>
        <mxCell id="KWuVbnkJmggJ6VGydbBu-53" value="direccion" style="text;html=1;strokeColor=none;fillColor=none;align=center;verticalAlign=middle;whiteSpace=wrap;rounded=0;" parent="1" vertex="1">
          <mxGeometry x="540" y="50" width="60" height="30" as="geometry" />
        </mxCell>
        <mxCell id="KWuVbnkJmggJ6VGydbBu-54" value="telefonos" style="ellipse;whiteSpace=wrap;html=1;align=center;dashed=1;" parent="1" vertex="1">
          <mxGeometry x="520" y="75" width="40" height="40" as="geometry" />
        </mxCell>
        <mxCell id="KWuVbnkJmggJ6VGydbBu-55" value="" style="endArrow=none;html=1;rounded=0;" parent="1" edge="1">
          <mxGeometry width="50" height="50" relative="1" as="geometry">
            <mxPoint x="500" y="160" as="sourcePoint" />
            <mxPoint x="530" y="110" as="targetPoint" />
          </mxGeometry>
        </mxCell>
        <mxCell id="KWuVbnkJmggJ6VGydbBu-57" value="" style="endArrow=none;html=1;rounded=0;" parent="1" edge="1">
          <mxGeometry width="50" height="50" relative="1" as="geometry">
            <mxPoint x="80" y="160" as="sourcePoint" />
            <mxPoint x="110" y="130" as="targetPoint" />
          </mxGeometry>
        </mxCell>
        <mxCell id="KWuVbnkJmggJ6VGydbBu-58" value="" style="ellipse;whiteSpace=wrap;html=1;aspect=fixed;" parent="1" vertex="1">
          <mxGeometry x="100" y="100" width="40" height="40" as="geometry" />
        </mxCell>
        <mxCell id="KWuVbnkJmggJ6VGydbBu-59" value="cod_libro" style="text;html=1;strokeColor=none;fillColor=none;align=center;verticalAlign=middle;whiteSpace=wrap;rounded=0;" parent="1" vertex="1">
          <mxGeometry x="130" y="85" width="60" height="30" as="geometry" />
        </mxCell>
        <mxCell id="KWuVbnkJmggJ6VGydbBu-60" value="" style="endArrow=none;html=1;rounded=0;" parent="1" edge="1">
          <mxGeometry width="50" height="50" relative="1" as="geometry">
            <mxPoint x="140" y="160" as="sourcePoint" />
            <mxPoint x="180" y="140" as="targetPoint" />
          </mxGeometry>
        </mxCell>
        <mxCell id="KWuVbnkJmggJ6VGydbBu-61" value="" style="ellipse;whiteSpace=wrap;html=1;aspect=fixed;" parent="1" vertex="1">
          <mxGeometry x="180" y="115" width="40" height="40" as="geometry" />
        </mxCell>
        <mxCell id="KWuVbnkJmggJ6VGydbBu-62" value="nombre" style="text;html=1;strokeColor=none;fillColor=none;align=center;verticalAlign=middle;whiteSpace=wrap;rounded=0;" parent="1" vertex="1">
          <mxGeometry x="190" y="85" width="60" height="30" as="geometry" />
        </mxCell>
        <mxCell id="KWuVbnkJmggJ6VGydbBu-63" value="" style="ellipse;whiteSpace=wrap;html=1;aspect=fixed;" parent="1" vertex="1">
          <mxGeometry x="105" y="105" width="30" height="30" as="geometry" />
        </mxCell>
        <mxCell id="KWuVbnkJmggJ6VGydbBu-64" value="" style="endArrow=none;html=1;rounded=0;entryX=0.176;entryY=0.013;entryDx=0;entryDy=0;entryPerimeter=0;exitX=0.5;exitY=1;exitDx=0;exitDy=0;" parent="1" edge="1" target="KWuVbnkJmggJ6VGydbBu-8" source="KWuVbnkJmggJ6VGydbBu-65">
          <mxGeometry width="50" height="50" relative="1" as="geometry">
            <mxPoint x="90" y="260" as="sourcePoint" />
            <mxPoint x="90" y="220" as="targetPoint" />
            <Array as="points" />
          </mxGeometry>
        </mxCell>
        <mxCell id="KWuVbnkJmggJ6VGydbBu-65" value="" style="ellipse;whiteSpace=wrap;html=1;aspect=fixed;" parent="1" vertex="1">
          <mxGeometry x="10" y="90" width="40" height="40" as="geometry" />
        </mxCell>
        <mxCell id="KWuVbnkJmggJ6VGydbBu-66" value="no_paginas" style="text;html=1;strokeColor=none;fillColor=none;align=center;verticalAlign=middle;whiteSpace=wrap;rounded=0;" parent="1" vertex="1">
          <mxGeometry x="-30" y="65" width="60" height="30" as="geometry" />
        </mxCell>
        <mxCell id="KWuVbnkJmggJ6VGydbBu-67" value="" style="endArrow=none;html=1;rounded=0;" parent="1" edge="1">
          <mxGeometry width="50" height="50" relative="1" as="geometry">
            <mxPoint x="100" y="-120" as="sourcePoint" />
            <mxPoint x="130" y="-150" as="targetPoint" />
          </mxGeometry>
        </mxCell>
        <mxCell id="KWuVbnkJmggJ6VGydbBu-69" value="" style="ellipse;whiteSpace=wrap;html=1;aspect=fixed;" parent="1" vertex="1">
          <mxGeometry x="125" y="-180" width="40" height="40" as="geometry" />
        </mxCell>
        <mxCell id="KWuVbnkJmggJ6VGydbBu-70" value="cod_prestamo" style="text;html=1;strokeColor=none;fillColor=none;align=center;verticalAlign=middle;whiteSpace=wrap;rounded=0;" parent="1" vertex="1">
          <mxGeometry x="170" y="-160" width="60" height="30" as="geometry" />
        </mxCell>
        <mxCell id="KWuVbnkJmggJ6VGydbBu-72" value="" style="ellipse;whiteSpace=wrap;html=1;aspect=fixed;" parent="1" vertex="1">
          <mxGeometry x="130" y="-175" width="30" height="30" as="geometry" />
        </mxCell>
        <mxCell id="KWuVbnkJmggJ6VGydbBu-74" value="" style="endArrow=none;html=1;rounded=0;" parent="1" edge="1">
          <mxGeometry width="50" height="50" relative="1" as="geometry">
            <mxPoint x="140" y="-90" as="sourcePoint" />
            <mxPoint x="190" y="-90" as="targetPoint" />
          </mxGeometry>
        </mxCell>
        <mxCell id="KWuVbnkJmggJ6VGydbBu-75" value="" style="ellipse;whiteSpace=wrap;html=1;aspect=fixed;" parent="1" vertex="1">
          <mxGeometry x="190" y="-110" width="40" height="40" as="geometry" />
        </mxCell>
        <mxCell id="KWuVbnkJmggJ6VGydbBu-76" value="fecha_entrega" style="text;html=1;strokeColor=none;fillColor=none;align=center;verticalAlign=middle;whiteSpace=wrap;rounded=0;" parent="1" vertex="1">
          <mxGeometry x="240" y="-110" width="60" height="30" as="geometry" />
        </mxCell>
        <mxCell id="KWuVbnkJmggJ6VGydbBu-77" value="" style="endArrow=none;html=1;rounded=0;" parent="1" edge="1">
          <mxGeometry width="50" height="50" relative="1" as="geometry">
            <mxPoint x="-30" y="-90" as="sourcePoint" />
            <mxPoint x="20" y="-90" as="targetPoint" />
          </mxGeometry>
        </mxCell>
        <mxCell id="KWuVbnkJmggJ6VGydbBu-79" value="" style="ellipse;whiteSpace=wrap;html=1;aspect=fixed;" parent="1" vertex="1">
          <mxGeometry x="-70" y="-110" width="40" height="40" as="geometry" />
        </mxCell>
        <mxCell id="KWuVbnkJmggJ6VGydbBu-80" value="fecha_devolucion" style="text;html=1;strokeColor=none;fillColor=none;align=center;verticalAlign=middle;whiteSpace=wrap;rounded=0;" parent="1" vertex="1">
          <mxGeometry x="-150" y="-110" width="60" height="30" as="geometry" />
        </mxCell>
        <mxCell id="KWuVbnkJmggJ6VGydbBu-85" value="" style="endArrow=none;html=1;rounded=0;" parent="1" edge="1">
          <mxGeometry width="50" height="50" relative="1" as="geometry">
            <mxPoint x="80" y="-370" as="sourcePoint" />
            <mxPoint x="100" y="-410" as="targetPoint" />
          </mxGeometry>
        </mxCell>
        <mxCell id="KWuVbnkJmggJ6VGydbBu-87" value="" style="ellipse;whiteSpace=wrap;html=1;aspect=fixed;" parent="1" vertex="1">
          <mxGeometry x="90" y="-445" width="40" height="40" as="geometry" />
        </mxCell>
        <mxCell id="KWuVbnkJmggJ6VGydbBu-88" value="nombre" style="text;html=1;strokeColor=none;fillColor=none;align=center;verticalAlign=middle;whiteSpace=wrap;rounded=0;" parent="1" vertex="1">
          <mxGeometry x="125" y="-440" width="60" height="30" as="geometry" />
        </mxCell>
        <mxCell id="KWuVbnkJmggJ6VGydbBu-89" value="" style="endArrow=none;html=1;rounded=0;exitX=0;exitY=0;exitDx=0;exitDy=0;" parent="1" source="KWuVbnkJmggJ6VGydbBu-87" edge="1">
          <mxGeometry width="50" height="50" relative="1" as="geometry">
            <mxPoint x="100" y="-440" as="sourcePoint" />
            <mxPoint x="90" y="-480" as="targetPoint" />
          </mxGeometry>
        </mxCell>
        <mxCell id="KWuVbnkJmggJ6VGydbBu-91" value="" style="ellipse;whiteSpace=wrap;html=1;aspect=fixed;" parent="1" vertex="1">
          <mxGeometry x="65" y="-510" width="40" height="40" as="geometry" />
        </mxCell>
        <mxCell id="KWuVbnkJmggJ6VGydbBu-92" value="apellido1" style="text;html=1;strokeColor=none;fillColor=none;align=center;verticalAlign=middle;whiteSpace=wrap;rounded=0;" parent="1" vertex="1">
          <mxGeometry x="100" y="-520" width="60" height="30" as="geometry" />
        </mxCell>
        <mxCell id="KWuVbnkJmggJ6VGydbBu-93" value="" style="ellipse;whiteSpace=wrap;html=1;aspect=fixed;" parent="1" vertex="1">
          <mxGeometry x="160" y="-485" width="40" height="40" as="geometry" />
        </mxCell>
        <mxCell id="KWuVbnkJmggJ6VGydbBu-94" value="" style="endArrow=none;html=1;rounded=0;exitX=1;exitY=0;exitDx=0;exitDy=0;" parent="1" source="KWuVbnkJmggJ6VGydbBu-87" edge="1">
          <mxGeometry width="50" height="50" relative="1" as="geometry">
            <mxPoint x="120" y="-440" as="sourcePoint" />
            <mxPoint x="160" y="-460" as="targetPoint" />
          </mxGeometry>
        </mxCell>
        <mxCell id="KWuVbnkJmggJ6VGydbBu-95" value="apellido2" style="text;html=1;strokeColor=none;fillColor=none;align=center;verticalAlign=middle;whiteSpace=wrap;rounded=0;" parent="1" vertex="1">
          <mxGeometry x="180" y="-510" width="60" height="30" as="geometry" />
        </mxCell>
        <mxCell id="KWuVbnkJmggJ6VGydbBu-96" value="" style="ellipse;whiteSpace=wrap;html=1;aspect=fixed;" parent="1" vertex="1">
          <mxGeometry x="190" y="-360" width="40" height="40" as="geometry" />
        </mxCell>
        <mxCell id="KWuVbnkJmggJ6VGydbBu-97" value="" style="endArrow=none;html=1;rounded=0;entryX=0;entryY=0.5;entryDx=0;entryDy=0;" parent="1" target="KWuVbnkJmggJ6VGydbBu-96" edge="1">
          <mxGeometry width="50" height="50" relative="1" as="geometry">
            <mxPoint x="140" y="-340" as="sourcePoint" />
            <mxPoint x="190" y="-390" as="targetPoint" />
          </mxGeometry>
        </mxCell>
        <mxCell id="KWuVbnkJmggJ6VGydbBu-99" value="cod_usuario" style="text;html=1;strokeColor=none;fillColor=none;align=center;verticalAlign=middle;whiteSpace=wrap;rounded=0;" parent="1" vertex="1">
          <mxGeometry x="210" y="-390" width="60" height="30" as="geometry" />
        </mxCell>
        <mxCell id="KWuVbnkJmggJ6VGydbBu-100" value="" style="ellipse;whiteSpace=wrap;html=1;aspect=fixed;" parent="1" vertex="1">
          <mxGeometry x="195" y="-355" width="30" height="30" as="geometry" />
        </mxCell>
        <mxCell id="KWuVbnkJmggJ6VGydbBu-115" value="" style="endArrow=none;html=1;rounded=0;" parent="1" edge="1">
          <mxGeometry width="50" height="50" relative="1" as="geometry">
            <mxPoint x="-400" y="190" as="sourcePoint" />
            <mxPoint x="-360" y="190" as="targetPoint" />
          </mxGeometry>
        </mxCell>
        <mxCell id="KWuVbnkJmggJ6VGydbBu-116" value="" style="ellipse;whiteSpace=wrap;html=1;aspect=fixed;" parent="1" vertex="1">
          <mxGeometry x="-440" y="170" width="40" height="40" as="geometry" />
        </mxCell>
        <mxCell id="KWuVbnkJmggJ6VGydbBu-117" value="cod_clase" style="text;html=1;strokeColor=none;fillColor=none;align=center;verticalAlign=middle;whiteSpace=wrap;rounded=0;" parent="1" vertex="1">
          <mxGeometry x="-430" y="140" width="60" height="30" as="geometry" />
        </mxCell>
        <mxCell id="KWuVbnkJmggJ6VGydbBu-118" value="" style="endArrow=none;html=1;rounded=0;" parent="1" edge="1">
          <mxGeometry width="50" height="50" relative="1" as="geometry">
            <mxPoint x="-320" y="100" as="sourcePoint" />
            <mxPoint x="-320" y="160" as="targetPoint" />
          </mxGeometry>
        </mxCell>
        <mxCell id="KWuVbnkJmggJ6VGydbBu-120" value="" style="ellipse;whiteSpace=wrap;html=1;aspect=fixed;" parent="1" vertex="1">
          <mxGeometry x="-340" y="60" width="40" height="40" as="geometry" />
        </mxCell>
        <mxCell id="KWuVbnkJmggJ6VGydbBu-121" value="clave" style="text;html=1;strokeColor=none;fillColor=none;align=center;verticalAlign=middle;whiteSpace=wrap;rounded=0;" parent="1" vertex="1">
          <mxGeometry x="-390" y="70" width="60" height="30" as="geometry" />
        </mxCell>
        <mxCell id="KWuVbnkJmggJ6VGydbBu-122" value="" style="endArrow=none;html=1;rounded=0;" parent="1" edge="1">
          <mxGeometry width="50" height="50" relative="1" as="geometry">
            <mxPoint x="-320" y="270" as="sourcePoint" />
            <mxPoint x="-320" y="220" as="targetPoint" />
          </mxGeometry>
        </mxCell>
        <mxCell id="KWuVbnkJmggJ6VGydbBu-123" value="" style="ellipse;whiteSpace=wrap;html=1;aspect=fixed;" parent="1" vertex="1">
          <mxGeometry x="-340" y="260" width="40" height="40" as="geometry" />
        </mxCell>
        <mxCell id="KWuVbnkJmggJ6VGydbBu-124" value="tiempo_prestamo" style="text;html=1;strokeColor=none;fillColor=none;align=center;verticalAlign=middle;whiteSpace=wrap;rounded=0;" parent="1" vertex="1">
          <mxGeometry x="-280" y="240" width="60" height="30" as="geometry" />
        </mxCell>
        <mxCell id="KWuVbnkJmggJ6VGydbBu-126" value="" style="ellipse;whiteSpace=wrap;html=1;aspect=fixed;" parent="1" vertex="1">
          <mxGeometry x="245" y="490" width="40" height="40" as="geometry" />
        </mxCell>
        <mxCell id="KWuVbnkJmggJ6VGydbBu-127" value="cod_editorial" style="text;html=1;strokeColor=none;fillColor=none;align=center;verticalAlign=middle;whiteSpace=wrap;rounded=0;" parent="1" vertex="1">
          <mxGeometry x="195" y="515" width="60" height="30" as="geometry" />
        </mxCell>
        <mxCell id="KWuVbnkJmggJ6VGydbBu-128" value="" style="endArrow=none;html=1;rounded=0;" parent="1" edge="1">
          <mxGeometry width="50" height="50" relative="1" as="geometry">
            <mxPoint x="350" y="410" as="sourcePoint" />
            <mxPoint x="350" y="360" as="targetPoint" />
          </mxGeometry>
        </mxCell>
        <mxCell id="KWuVbnkJmggJ6VGydbBu-129" value="" style="ellipse;whiteSpace=wrap;html=1;aspect=fixed;" parent="1" vertex="1">
          <mxGeometry x="340" y="335" width="40" height="40" as="geometry" />
        </mxCell>
        <mxCell id="KWuVbnkJmggJ6VGydbBu-130" value="nombre" style="text;html=1;strokeColor=none;fillColor=none;align=center;verticalAlign=middle;whiteSpace=wrap;rounded=0;" parent="1" vertex="1">
          <mxGeometry x="370" y="320" width="60" height="30" as="geometry" />
        </mxCell>
        <mxCell id="KWuVbnkJmggJ6VGydbBu-132" value="" style="ellipse;whiteSpace=wrap;html=1;aspect=fixed;" parent="1" vertex="1">
          <mxGeometry x="330" y="630" width="40" height="40" as="geometry" />
        </mxCell>
        <mxCell id="KWuVbnkJmggJ6VGydbBu-133" value="direccion" style="text;html=1;strokeColor=none;fillColor=none;align=center;verticalAlign=middle;whiteSpace=wrap;rounded=0;" parent="1" vertex="1">
          <mxGeometry x="330" y="570" width="60" height="30" as="geometry" />
        </mxCell>
        <mxCell id="KWuVbnkJmggJ6VGydbBu-134" value="" style="endArrow=none;html=1;rounded=0;" parent="1" edge="1">
          <mxGeometry width="50" height="50" relative="1" as="geometry">
            <mxPoint x="-250" y="100" as="sourcePoint" />
            <mxPoint x="-240" y="90" as="targetPoint" />
          </mxGeometry>
        </mxCell>
        <mxCell id="KWuVbnkJmggJ6VGydbBu-136" value="" style="ellipse;whiteSpace=wrap;html=1;aspect=fixed;" parent="1" vertex="1">
          <mxGeometry x="245" y="610" width="40" height="40" as="geometry" />
        </mxCell>
        <mxCell id="KWuVbnkJmggJ6VGydbBu-137" value="" style="endArrow=none;html=1;rounded=0;exitX=1;exitY=1;exitDx=0;exitDy=0;" parent="1" edge="1" source="KWuVbnkJmggJ6VGydbBu-138">
          <mxGeometry width="50" height="50" relative="1" as="geometry">
            <mxPoint x="330" y="350" as="sourcePoint" />
            <mxPoint x="350" y="630" as="targetPoint" />
          </mxGeometry>
        </mxCell>
        <mxCell id="KWuVbnkJmggJ6VGydbBu-138" value="" style="ellipse;whiteSpace=wrap;html=1;aspect=fixed;" parent="1" vertex="1">
          <mxGeometry x="290" y="560" width="40" height="40" as="geometry" />
        </mxCell>
        <mxCell id="KWuVbnkJmggJ6VGydbBu-139" value="barrio" style="text;html=1;strokeColor=none;fillColor=none;align=center;verticalAlign=middle;whiteSpace=wrap;rounded=0;" parent="1" vertex="1">
          <mxGeometry x="370" y="630" width="60" height="30" as="geometry" />
        </mxCell>
        <mxCell id="KWuVbnkJmggJ6VGydbBu-140" value="ciudad" style="text;html=1;strokeColor=none;fillColor=none;align=center;verticalAlign=middle;whiteSpace=wrap;rounded=0;" parent="1" vertex="1">
          <mxGeometry x="210" y="580" width="60" height="30" as="geometry" />
        </mxCell>
        <mxCell id="KWuVbnkJmggJ6VGydbBu-144" value="" style="ellipse;whiteSpace=wrap;html=1;aspect=fixed;" parent="1" vertex="1">
          <mxGeometry x="250" y="495" width="30" height="30" as="geometry" />
        </mxCell>
        <mxCell id="DMn7qoaX3mOR8foh6lKY-1" value="" style="ellipse;whiteSpace=wrap;html=1;aspect=fixed;" vertex="1" parent="1">
          <mxGeometry x="450" y="-20" width="40" height="40" as="geometry" />
        </mxCell>
        <mxCell id="DMn7qoaX3mOR8foh6lKY-2" value="" style="ellipse;whiteSpace=wrap;html=1;aspect=fixed;" vertex="1" parent="1">
          <mxGeometry x="520" y="-5" width="40" height="40" as="geometry" />
        </mxCell>
        <mxCell id="DMn7qoaX3mOR8foh6lKY-3" value="" style="endArrow=none;html=1;rounded=0;entryX=0;entryY=1;entryDx=0;entryDy=0;exitX=1;exitY=0;exitDx=0;exitDy=0;" edge="1" parent="1" source="KWuVbnkJmggJ6VGydbBu-52" target="DMn7qoaX3mOR8foh6lKY-2">
          <mxGeometry width="50" height="50" relative="1" as="geometry">
            <mxPoint x="500" y="60" as="sourcePoint" />
            <mxPoint x="530" y="30" as="targetPoint" />
          </mxGeometry>
        </mxCell>
        <mxCell id="DMn7qoaX3mOR8foh6lKY-4" value="" style="endArrow=none;html=1;rounded=0;exitX=0.5;exitY=1;exitDx=0;exitDy=0;entryX=0;entryY=0;entryDx=0;entryDy=0;" edge="1" parent="1" source="DMn7qoaX3mOR8foh6lKY-1" target="KWuVbnkJmggJ6VGydbBu-52">
          <mxGeometry width="50" height="50" relative="1" as="geometry">
            <mxPoint x="430" y="110" as="sourcePoint" />
            <mxPoint x="480" y="60" as="targetPoint" />
          </mxGeometry>
        </mxCell>
        <mxCell id="DMn7qoaX3mOR8foh6lKY-5" value="barrio" style="text;html=1;strokeColor=none;fillColor=none;align=center;verticalAlign=middle;whiteSpace=wrap;rounded=0;" vertex="1" parent="1">
          <mxGeometry x="410" y="-50" width="60" height="30" as="geometry" />
        </mxCell>
        <mxCell id="DMn7qoaX3mOR8foh6lKY-6" value="ciudad" style="text;html=1;strokeColor=none;fillColor=none;align=center;verticalAlign=middle;whiteSpace=wrap;rounded=0;" vertex="1" parent="1">
          <mxGeometry x="540" y="-30" width="60" height="30" as="geometry" />
        </mxCell>
        <mxCell id="DMn7qoaX3mOR8foh6lKY-8" value="" style="endArrow=none;html=1;rounded=0;" edge="1" parent="1" source="KWuVbnkJmggJ6VGydbBu-27">
          <mxGeometry width="50" height="50" relative="1" as="geometry">
            <mxPoint x="30" y="410" as="sourcePoint" />
            <mxPoint x="80" y="360" as="targetPoint" />
          </mxGeometry>
        </mxCell>
        <mxCell id="DMn7qoaX3mOR8foh6lKY-10" value="" style="rhombus;whiteSpace=wrap;html=1;" vertex="1" parent="1">
          <mxGeometry x="160" y="280" width="120" height="80" as="geometry" />
        </mxCell>
        <mxCell id="DMn7qoaX3mOR8foh6lKY-11" value="tienen" style="text;html=1;strokeColor=none;fillColor=none;align=center;verticalAlign=middle;whiteSpace=wrap;rounded=0;" vertex="1" parent="1">
          <mxGeometry x="190" y="305" width="60" height="30" as="geometry" />
        </mxCell>
        <mxCell id="DMn7qoaX3mOR8foh6lKY-14" value="telefonos" style="ellipse;whiteSpace=wrap;html=1;align=center;dashed=1;" vertex="1" parent="1">
          <mxGeometry x="330" y="510" width="40" height="40" as="geometry" />
        </mxCell>
        <mxCell id="DMn7qoaX3mOR8foh6lKY-15" value="" style="endArrow=none;html=1;rounded=0;exitX=0.5;exitY=0;exitDx=0;exitDy=0;" edge="1" parent="1" source="DMn7qoaX3mOR8foh6lKY-14">
          <mxGeometry width="50" height="50" relative="1" as="geometry">
            <mxPoint x="300" y="520" as="sourcePoint" />
            <mxPoint x="350" y="470" as="targetPoint" />
          </mxGeometry>
        </mxCell>
        <mxCell id="DMn7qoaX3mOR8foh6lKY-17" value="" style="endArrow=none;html=1;rounded=0;entryX=0.67;entryY=1.04;entryDx=0;entryDy=0;entryPerimeter=0;" edge="1" parent="1" target="KWuVbnkJmggJ6VGydbBu-30">
          <mxGeometry width="50" height="50" relative="1" as="geometry">
            <mxPoint x="310" y="560" as="sourcePoint" />
            <mxPoint x="340" y="480" as="targetPoint" />
          </mxGeometry>
        </mxCell>
        <mxCell id="DMn7qoaX3mOR8foh6lKY-18" value="" style="endArrow=none;html=1;rounded=0;entryX=0;entryY=1;entryDx=0;entryDy=0;exitX=1;exitY=0;exitDx=0;exitDy=0;" edge="1" parent="1" source="KWuVbnkJmggJ6VGydbBu-136" target="KWuVbnkJmggJ6VGydbBu-138">
          <mxGeometry width="50" height="50" relative="1" as="geometry">
            <mxPoint x="250" y="640" as="sourcePoint" />
            <mxPoint x="300" y="590" as="targetPoint" />
          </mxGeometry>
        </mxCell>
        <mxCell id="DMn7qoaX3mOR8foh6lKY-19" value="" style="endArrow=none;html=1;rounded=0;exitX=0;exitY=0;exitDx=0;exitDy=0;" edge="1" parent="1" source="KWuVbnkJmggJ6VGydbBu-30">
          <mxGeometry width="50" height="50" relative="1" as="geometry">
            <mxPoint x="170" y="410" as="sourcePoint" />
            <mxPoint x="220" y="360" as="targetPoint" />
          </mxGeometry>
        </mxCell>
        <mxCell id="DMn7qoaX3mOR8foh6lKY-20" value="" style="endArrow=none;html=1;rounded=0;exitX=1;exitY=0.5;exitDx=0;exitDy=0;" edge="1" parent="1" source="DMn7qoaX3mOR8foh6lKY-21">
          <mxGeometry width="50" height="50" relative="1" as="geometry">
            <mxPoint x="-50" y="190" as="sourcePoint" />
            <mxPoint x="20" y="190" as="targetPoint" />
          </mxGeometry>
        </mxCell>
        <mxCell id="DMn7qoaX3mOR8foh6lKY-21" value="" style="rhombus;whiteSpace=wrap;html=1;" vertex="1" parent="1">
          <mxGeometry x="-180" y="150" width="120" height="80" as="geometry" />
        </mxCell>
        <mxCell id="DMn7qoaX3mOR8foh6lKY-23" value="tienen" style="text;html=1;strokeColor=none;fillColor=none;align=center;verticalAlign=middle;whiteSpace=wrap;rounded=0;" vertex="1" parent="1">
          <mxGeometry x="50" y="305" width="60" height="30" as="geometry" />
        </mxCell>
        <mxCell id="DMn7qoaX3mOR8foh6lKY-24" value="tienen" style="text;html=1;strokeColor=none;fillColor=none;align=center;verticalAlign=middle;whiteSpace=wrap;rounded=0;" vertex="1" parent="1">
          <mxGeometry x="-150" y="175" width="60" height="30" as="geometry" />
        </mxCell>
        <mxCell id="DMn7qoaX3mOR8foh6lKY-25" value="1:n" style="text;html=1;strokeColor=none;fillColor=none;align=center;verticalAlign=middle;whiteSpace=wrap;rounded=0;" vertex="1" parent="1">
          <mxGeometry x="160" y="160" width="60" height="30" as="geometry" />
        </mxCell>
        <mxCell id="DMn7qoaX3mOR8foh6lKY-26" value="n.n" style="text;html=1;strokeColor=none;fillColor=none;align=center;verticalAlign=middle;whiteSpace=wrap;rounded=0;" vertex="1" parent="1">
          <mxGeometry x="340" y="160" width="60" height="30" as="geometry" />
        </mxCell>
        <mxCell id="DMn7qoaX3mOR8foh6lKY-28" value="n:m" style="text;html=1;strokeColor=none;fillColor=none;align=center;verticalAlign=middle;whiteSpace=wrap;rounded=0;" vertex="1" parent="1">
          <mxGeometry x="255" y="120" width="60" height="30" as="geometry" />
        </mxCell>
        <mxCell id="DMn7qoaX3mOR8foh6lKY-29" value="1:1" style="text;html=1;strokeColor=none;fillColor=none;align=center;verticalAlign=middle;whiteSpace=wrap;rounded=0;" vertex="1" parent="1">
          <mxGeometry x="-60" y="155" width="60" height="30" as="geometry" />
        </mxCell>
        <mxCell id="DMn7qoaX3mOR8foh6lKY-30" value="1:1" style="text;html=1;strokeColor=none;fillColor=none;align=center;verticalAlign=middle;whiteSpace=wrap;rounded=0;" vertex="1" parent="1">
          <mxGeometry x="-230" y="155" width="60" height="30" as="geometry" />
        </mxCell>
        <mxCell id="DMn7qoaX3mOR8foh6lKY-31" value="1:1" style="text;html=1;strokeColor=none;fillColor=none;align=center;verticalAlign=middle;whiteSpace=wrap;rounded=0;" vertex="1" parent="1">
          <mxGeometry x="-150" y="115" width="60" height="30" as="geometry" />
        </mxCell>
        <mxCell id="DMn7qoaX3mOR8foh6lKY-32" value="1:1" style="text;html=1;strokeColor=none;fillColor=none;align=center;verticalAlign=middle;whiteSpace=wrap;rounded=0;" vertex="1" parent="1">
          <mxGeometry x="30" y="120" width="60" height="30" as="geometry" />
        </mxCell>
        <mxCell id="DMn7qoaX3mOR8foh6lKY-33" value="1:n" style="text;html=1;strokeColor=none;fillColor=none;align=center;verticalAlign=middle;whiteSpace=wrap;rounded=0;" vertex="1" parent="1">
          <mxGeometry x="30" y="-50" width="60" height="30" as="geometry" />
        </mxCell>
        <mxCell id="DMn7qoaX3mOR8foh6lKY-34" value="n:1" style="text;html=1;strokeColor=none;fillColor=none;align=center;verticalAlign=middle;whiteSpace=wrap;rounded=0;" vertex="1" parent="1">
          <mxGeometry x="160" y="30" width="60" height="30" as="geometry" />
        </mxCell>
        <mxCell id="DMn7qoaX3mOR8foh6lKY-35" value="1:n" style="text;html=1;strokeColor=none;fillColor=none;align=center;verticalAlign=middle;whiteSpace=wrap;rounded=0;" vertex="1" parent="1">
          <mxGeometry x="10" y="-170" width="60" height="30" as="geometry" />
        </mxCell>
        <mxCell id="DMn7qoaX3mOR8foh6lKY-36" value="1.1" style="text;html=1;strokeColor=none;fillColor=none;align=center;verticalAlign=middle;whiteSpace=wrap;rounded=0;" vertex="1" parent="1">
          <mxGeometry x="30" y="-300" width="60" height="30" as="geometry" />
        </mxCell>
        <mxCell id="DMn7qoaX3mOR8foh6lKY-37" value="1:n" style="text;html=1;strokeColor=none;fillColor=none;align=center;verticalAlign=middle;whiteSpace=wrap;rounded=0;" vertex="1" parent="1">
          <mxGeometry x="-30" y="-225" width="60" height="30" as="geometry" />
        </mxCell>
        <mxCell id="DMn7qoaX3mOR8foh6lKY-38" value="n:1" style="text;html=1;strokeColor=none;fillColor=none;align=center;verticalAlign=middle;whiteSpace=wrap;rounded=0;" vertex="1" parent="1">
          <mxGeometry x="10" y="240" width="60" height="30" as="geometry" />
        </mxCell>
        <mxCell id="DMn7qoaX3mOR8foh6lKY-40" value="1:n" style="text;html=1;strokeColor=none;fillColor=none;align=center;verticalAlign=middle;whiteSpace=wrap;rounded=0;" vertex="1" parent="1">
          <mxGeometry x="10" y="370" width="60" height="30" as="geometry" />
        </mxCell>
        <mxCell id="DMn7qoaX3mOR8foh6lKY-41" value="1:n" style="text;html=1;strokeColor=none;fillColor=none;align=center;verticalAlign=middle;whiteSpace=wrap;rounded=0;" vertex="1" parent="1">
          <mxGeometry x="-40" y="305" width="60" height="30" as="geometry" />
        </mxCell>
        <mxCell id="DMn7qoaX3mOR8foh6lKY-42" value="1:n" style="text;html=1;strokeColor=none;fillColor=none;align=center;verticalAlign=middle;whiteSpace=wrap;rounded=0;" vertex="1" parent="1">
          <mxGeometry x="140" y="230" width="60" height="30" as="geometry" />
        </mxCell>
        <mxCell id="DMn7qoaX3mOR8foh6lKY-43" value="1:1" style="text;html=1;strokeColor=none;fillColor=none;align=center;verticalAlign=middle;whiteSpace=wrap;rounded=0;" vertex="1" parent="1">
          <mxGeometry x="250" y="375" width="60" height="30" as="geometry" />
        </mxCell>
        <mxCell id="DMn7qoaX3mOR8foh6lKY-44" value="n:1" style="text;html=1;strokeColor=none;fillColor=none;align=center;verticalAlign=middle;whiteSpace=wrap;rounded=0;" vertex="1" parent="1">
          <mxGeometry x="280" y="300" width="60" height="30" as="geometry" />
        </mxCell>
        <mxCell id="DMn7qoaX3mOR8foh6lKY-46" value="" style="ellipse;whiteSpace=wrap;html=1;aspect=fixed;" vertex="1" parent="1">
          <mxGeometry x="20" y="505" width="40" height="40" as="geometry" />
        </mxCell>
        <mxCell id="DMn7qoaX3mOR8foh6lKY-47" value="" style="endArrow=none;html=1;rounded=0;exitX=0.5;exitY=0;exitDx=0;exitDy=0;" edge="1" parent="1" source="DMn7qoaX3mOR8foh6lKY-46">
          <mxGeometry width="50" height="50" relative="1" as="geometry">
            <mxPoint y="520" as="sourcePoint" />
            <mxPoint x="50" y="470" as="targetPoint" />
          </mxGeometry>
        </mxCell>
        <mxCell id="DMn7qoaX3mOR8foh6lKY-49" value="" style="ellipse;whiteSpace=wrap;html=1;aspect=fixed;" vertex="1" parent="1">
          <mxGeometry x="40" y="560" width="40" height="40" as="geometry" />
        </mxCell>
        <mxCell id="DMn7qoaX3mOR8foh6lKY-50" value="" style="ellipse;whiteSpace=wrap;html=1;aspect=fixed;" vertex="1" parent="1">
          <mxGeometry x="-30" y="540" width="40" height="40" as="geometry" />
        </mxCell>
        <mxCell id="DMn7qoaX3mOR8foh6lKY-51" value="" style="endArrow=none;html=1;rounded=0;exitX=1;exitY=0;exitDx=0;exitDy=0;" edge="1" parent="1" source="DMn7qoaX3mOR8foh6lKY-50">
          <mxGeometry width="50" height="50" relative="1" as="geometry">
            <mxPoint x="-30" y="580" as="sourcePoint" />
            <mxPoint x="20" y="530" as="targetPoint" />
          </mxGeometry>
        </mxCell>
        <mxCell id="DMn7qoaX3mOR8foh6lKY-52" value="" style="endArrow=none;html=1;rounded=0;entryX=0.5;entryY=1;entryDx=0;entryDy=0;exitX=0;exitY=0;exitDx=0;exitDy=0;" edge="1" parent="1" source="DMn7qoaX3mOR8foh6lKY-49" target="DMn7qoaX3mOR8foh6lKY-46">
          <mxGeometry width="50" height="50" relative="1" as="geometry">
            <mxPoint x="50" y="560" as="sourcePoint" />
            <mxPoint x="120" y="560" as="targetPoint" />
          </mxGeometry>
        </mxCell>
        <mxCell id="DMn7qoaX3mOR8foh6lKY-53" value="nombre" style="text;html=1;strokeColor=none;fillColor=none;align=center;verticalAlign=middle;whiteSpace=wrap;rounded=0;" vertex="1" parent="1">
          <mxGeometry x="-20" y="485" width="60" height="30" as="geometry" />
        </mxCell>
        <mxCell id="DMn7qoaX3mOR8foh6lKY-54" value="apellido1" style="text;html=1;strokeColor=none;fillColor=none;align=center;verticalAlign=middle;whiteSpace=wrap;rounded=0;" vertex="1" parent="1">
          <mxGeometry x="-90" y="525" width="60" height="30" as="geometry" />
        </mxCell>
        <mxCell id="DMn7qoaX3mOR8foh6lKY-55" value="apellido2" style="text;html=1;strokeColor=none;fillColor=none;align=center;verticalAlign=middle;whiteSpace=wrap;rounded=0;" vertex="1" parent="1">
          <mxGeometry x="55" y="540" width="60" height="30" as="geometry" />
        </mxCell>
        <mxCell id="DMn7qoaX3mOR8foh6lKY-56" value="" style="ellipse;whiteSpace=wrap;html=1;aspect=fixed;" vertex="1" parent="1">
          <mxGeometry x="-60" y="385" width="40" height="40" as="geometry" />
        </mxCell>
        <mxCell id="DMn7qoaX3mOR8foh6lKY-57" value="" style="ellipse;whiteSpace=wrap;html=1;aspect=fixed;" vertex="1" parent="1">
          <mxGeometry x="-52.5" y="392.5" width="25" height="25" as="geometry" />
        </mxCell>
        <mxCell id="DMn7qoaX3mOR8foh6lKY-58" value="" style="endArrow=none;html=1;rounded=0;exitX=1;exitY=1;exitDx=0;exitDy=0;" edge="1" parent="1" source="DMn7qoaX3mOR8foh6lKY-56">
          <mxGeometry width="50" height="50" relative="1" as="geometry">
            <mxPoint x="-30" y="480" as="sourcePoint" />
            <mxPoint x="20" y="430" as="targetPoint" />
          </mxGeometry>
        </mxCell>
        <mxCell id="DMn7qoaX3mOR8foh6lKY-59" value="id" style="text;html=1;strokeColor=none;fillColor=none;align=center;verticalAlign=middle;whiteSpace=wrap;rounded=0;" vertex="1" parent="1">
          <mxGeometry x="-100" y="425" width="60" height="30" as="geometry" />
        </mxCell>
        <mxCell id="DMn7qoaX3mOR8foh6lKY-61" value="telefonos" style="ellipse;whiteSpace=wrap;html=1;align=center;dashed=1;" vertex="1" parent="1">
          <mxGeometry x="-20" y="-445" width="40" height="40" as="geometry" />
        </mxCell>
        <mxCell id="DMn7qoaX3mOR8foh6lKY-62" value="" style="endArrow=none;html=1;rounded=0;exitX=1;exitY=1;exitDx=0;exitDy=0;" edge="1" parent="1" source="DMn7qoaX3mOR8foh6lKY-61">
          <mxGeometry width="50" height="50" relative="1" as="geometry">
            <mxPoint x="-30" y="-320" as="sourcePoint" />
            <mxPoint x="20" y="-370" as="targetPoint" />
          </mxGeometry>
        </mxCell>
      </root>
    </mxGraphModel>
  </diagram>
</mxfile>
